<svg width="270" height="270" viewBox="0 0 270 270" fill="none" xmlns="http://www.w3.org/2000/svg">
<rect x="3" y="3" width="264" height="264" fill="#155DFC" stroke="#FCC800" stroke-width="6"/>
<path d="M124.382 85.5882V93.1176H131.912V100.647H124.382V108.176H79.2059V160.882H101.794V145.824H94.2647V138.294H86.7353V130.765H94.2647V123.235H124.382V130.765H131.912V175.941H124.382V183.471H116.853V191H41.5588V183.471H34.0294V175.941H26.5V100.647H34.0294V108.176H41.5588V100.647H49.0882V93.1176H41.5588V85.5882H124.382ZM244.882 93.1176V100.647H252.412V130.765H244.882V138.294H252.412V175.941H244.882V183.471H237.353V191H154.529V183.471H147V93.1176H154.529V108.176H162.059V100.647H169.588V93.1176H154.529V85.5882H237.353V93.1176H244.882ZM222.294 123.235V108.176H199.706V123.235H222.294ZM199.706 160.882H222.294V145.824H199.706V160.882Z" fill="#193CB8"/>
<path d="M116.382 77.5882V85.1176H123.912V92.6471H116.382V100.176H71.2059V152.882H93.7941V137.824H86.2647V130.294H78.7353V122.765H86.2647V115.235H116.382V122.765H123.912V167.941H116.382V175.471H108.853V183H33.5588V175.471H26.0294V167.941H18.5V92.6471H26.0294V100.176H33.5588V92.6471H41.0882V85.1176H33.5588V77.5882H116.382ZM236.882 85.1176V92.6471H244.412V122.765H236.882V130.294H244.412V167.941H236.882V175.471H229.353V183H146.529V175.471H139V85.1176H146.529V100.176H154.059V92.6471H161.588V85.1176H146.529V77.5882H229.353V85.1176H236.882ZM214.294 115.235V100.176H191.706V115.235H214.294ZM191.706 152.882H214.294V137.824H191.706V152.882Z" fill="#FCC800"/>
</svg>
